#!OML:ASF H:\Not Pregnant\Project 1\Capture day 1\Session 1\non-pregnant.ASF
:FULLY-SPECIFIED
:DEGREES
485
root 6.82824 16.0263 -8.51461 -171.036 -7.89903 -175.033
lowerback -4.28997 5.09366 8.67654
upperback -6.57403 6.18598 -1.20192
thorax -3.41806 2.50085 -5.94096
lowerneck 4.29587 -2.63285 -30.3378
upperneck 11.0861 -10.71 36.3042
head 6.16891 -6.82253 19.0818
rclavicle 2.36057e-014 1.59028e-014
rhumerus -34.9961 -11.2779 -87.2857
rradius 29.0462
rwrist 17.5428
rhand -14.6307 -4.71507
rfingers 7.12502
rthumb -168.479 145.622
lclavicle 2.36057e-014 1.59028e-014
lhumerus -46.5315 3.44827 78.8699
lradius 33.3862
lwrist 33.3745
lhand -15.3438 -10.4423
lfingers 7.12502
lthumb 10.8331 19.2583
rfemur -4.68454 0.108673 27.7517
rtibia 36.9941
rfoot -8.03796 20.5352
rtoes -18.5936
lfemur -42.8544 11.8895 -26.8546
ltibia 40.7154
lfoot -7.78399 9.80375
ltoes -4.55992
486
root 6.80498 16.0373 -8.63359 -171.133 -8.4766 -175.236
lowerback -4.24203 5.11724 8.46809
upperback -6.60523 6.2281 -1.25266
thorax -3.48424 2.52676 -5.88289
lowerneck 3.81608 -2.43965 -30.1157
upperneck 11.4367 -10.2521 36.1408
head 6.14978 -6.52225 18.986
rclavicle 7.21837e-014 1.70955e-014
rhumerus -35.5129 -12.269 -86.8617
rradius 28.3563
rwrist 17.6822
rhand -14.2671 -4.94084
rfingers 7.12502
rthumb -168.128 145.416
lclavicle 7.21837e-014 1.70955e-014
lhumerus -46.2319 3.37384 79.011
lradius 33.656
lwrist 33.6915
lhand -15.5727 -10.4351
lfingers 7.12502
lthumb 10.6123 19.2769
rfemur -5.45881 -0.822376 27.248
rtibia 38.9375
rfoot -5.223 21.3531
rtoes -17.6636
lfemur -42.1733 11.4351 -26.9816
ltibia 40.6489
lfoot -8.21146 9.77179
ltoes -4.59416
487
root 6.78112 16.0492 -8.7502 -171.236 -9.02378 -175.425
lowerback -4.17407 5.15317 8.28292
upperback -6.62444 6.28917 -1.30094
thorax -3.54443 2.56272 -5.8355
lowerneck 3.32821 -2.24693 -29.8863
upperneck 11.7703 -9.79479 35.99
head 6.13101 -6.22162 18.8936
rclavicle -4.44532e-014 4.37326e-015
rhumerus -36.0121 -13.1852 -86.4411
rradius 27.71
rwrist 17.7241
rhand -13.8567 -5.17412
rfingers 7.12502
rthumb -167.733 145.206
lclavicle -4.44532e-014 4.37326e-015
lhumerus -45.9541 3.18406 79.2748
lradius 34.1504
lwrist 34.3893
lhand -16.0618 -10.105
lfingers 7.12502
lthumb 10.1406 19.6306
rfemur -6.31308 -1.67843 26.7252
rtibia 40.9231
rfoot -2.35513 21.9679
rtoes -17.0583
lfemur -41.4729 11.0322 -27.1064
ltibia 40.5362
lfoot -8.61865 9.7334
ltoes -4.56488
488
root 6.7568 16.0619 -8.86443 -171.332 -9.53091 -175.617
lowerback -4.08898 5.20637 8.10653
upperback -6.63563 6.37528 -1.3567
thorax -3.60053 2.61181 -5.80094
lowerneck 2.82648 -2.0474 -29.674
upperneck 12.0894 -9.3352 35.8847
head 6.11674 -5.92186 18.8318
rclavicle 1.96548e-014 -2.06736e-014
rhumerus -36.4933 -14.0216 -86.0361
rradius 27.1131
rwrist 17.6894
rhand -13.4322 -5.36654
rfingers 7.12502
rthumb -167.323 145.038
lclavicle 1.96548e-014 -2.06736e-014
lhumerus -45.6831 2.90158 79.6173
lradius 34.789
lwrist 35.2983
lhand -16.672 -9.62454
lfingers 7.12502
lthumb 9.55181 20.139
rfemur -7.24916 -2.42317 26.1733
rtibia 42.9216
rfoot 0.306404 22.4518
rtoes -17.1736
lfemur -40.7625 10.6876 -27.2464
ltibia 40.3775
lfoot -9.00611 9.67701
ltoes -4.47899
489
root 6.73242 16.0752 -8.97661 -171.422 -10.0085 -175.829
lowerback -3.98844 5.27153 7.91721
upperback -6.63664 6.47947 -1.42212
thorax -3.6523 2.67162 -5.76971
lowerneck 2.28691 -1.85032 -29.4902
upperneck 12.4184 -8.88644 35.8208
head 6.12414 -5.62833 18.802
rclavicle -1.29955e-014 -1.07344e-014
rhumerus -36.9472 -14.7639 -85.6611
rradius 26.5725
rwrist 17.5882
rhand -13.0158 -5.51537
rfingers 7.12502
rthumb -166.922 144.915
lclavicle -1.29955e-014 -1.07344e-014
lhumerus -45.4222 2.53738 80.0201
lradius 35.5371
lwrist 36.3372
lhand -17.3257 -9.08943
lfingers 7.12502
lthumb 8.92106 20.702
rfemur -8.24717 -3.0522 25.5897
rtibia 44.9089
rfoot 2.47401 22.9421
rtoes -18.265
lfemur -40.0336 10.3973 -27.4146
ltibia 40.1697
lfoot -9.37451 9.58835
ltoes -4.31635
490
root 6.70852 16.0887 -9.08655 -171.498 -10.4506 -176.084
lowerback -3.8714 5.34735 7.68427
upperback -6.63698 6.59938 -1.50321
thorax -3.71312 2.74079 -5.73205
lowerneck 1.71951 -1.65312 -29.3429
upperneck 12.7668 -8.45105 35.8003
head 6.15453 -5.34413 18.8091
rclavicle 6.27414e-014 1.03368e-014
rhumerus -37.3827 -15.3909 -85.3312
rradius 26.0842
rwrist 17.4518
rhand -12.6305 -5.59729
rfingers 7.12502
rthumb -166.551 144.857
lclavicle 6.27414e-014 1.03368e-014
lhumerus -45.1754 2.11803 80.4468
lradius 36.3136
lwrist 37.3415
lhand -17.8729 -8.69089
lfingers 7.12502
lthumb 8.39303 21.1224
rfemur -9.30201 -3.54927 24.9627
rtibia 46.8696
rfoot 4.0337 23.5489
rtoes -19.8729
lfemur -39.2902 10.1662 -27.6344
ltibia 39.9129
lfoot -9.7205 9.45868
ltoes -4.14069
491
root 6.68565 16.1018 -9.19373 -171.555 -10.8689 -176.397
lowerback -3.73025 5.43068 7.39118
upperback -6.63851 6.73108 -1.60684
thorax -3.79103 2.81753 -5.68725
lowerneck 1.19265 -1.45965 -29.1704
upperneck 13.0729 -8.02362 35.7738
head 6.16714 -5.06441 18.8014
rclavicle -1.37161e-014 3.69739e-014
rhumerus -37.7928 -15.9023 -85.0585
rradius 25.6463
rwrist 17.3215
rhand -12.2901 -5.61618
rfingers 7.12502
rthumb -166.223 144.86
lclavicle -1.37161e-014 3.69739e-014
lhumerus -44.9303 1.64548 80.8811
lradius 37.0699
lwrist 38.2134
lhand -18.2253 -8.49362
lfingers 7.12502
lthumb 8.05294 21.333
rfemur -10.4016 -3.9254 24.2891
rtibia 48.7939
rfoot 4.91525 24.257
rtoes -21.4617
lfemur -38.5386 9.98626 -27.9206
ltibia 39.6107
lfoot -10.0414 9.27818
ltoes -3.96416
492
root 6.66455 16.1139 -9.29782 -171.6 -11.281 -176.775
lowerback -3.54992 5.51438 7.02776
upperback -6.63932 6.86592 -1.73306
thorax -3.89524 2.89788 -5.63185
lowerneck 0.709022 -1.27134 -28.9737
upperneck 13.3297 -7.60516 35.7404
head 6.16007 -4.78963 18.7774
rclavicle -6.09275e-014 -1.47101e-014
rhumerus -38.162 -16.293 -84.8551
rradius 25.2528
rwrist 17.2294
rhand -12.0284 -5.5974
rfingers 7.12502
rthumb -165.97 144.896
lclavicle -6.09275e-014 -1.47101e-014
lhumerus -44.6738 1.12838 81.3126
lradius 37.7701
lwrist 38.8875
lhand -18.3103 -8.52757
lfingers 7.12502
lthumb 7.97084 21.3021
rfemur -11.5226 -4.1921 23.5789
rtibia 50.6778
rfoot 5.0728 24.941
rtoes -22.7616
lfemur -37.7762 9.84876 -28.2757
ltibia 39.27
lfoot -10.332 9.04006
ltoes -3.86157
493
root 6.64547 16.1249 -9.39837 -171.635 -11.6895 -177.207
lowerback -3.32239 5.59502 6.6045
upperback -6.6378 6.99876 -1.87674
thorax -4.02935 2.97889 -5.56757
lowerneck 0.246951 -1.08882 -28.7638
upperneck 13.5575 -7.19801 35.7052
head 6.14554 -4.52078 18.7448
rclavicle 7.01213e-014 -1.03368e-014
rhumerus -38.4774 -16.5566 -84.7299
rradius 24.8905
rwrist 17.2293
rhand -11.8954 -5.53888
rfingers 7.12502
rthumb -165.842 144.964
lclavicle 7.01213e-014 -1.03368e-014
lhumerus -44.4093 0.545914 81.7618
lradius 38.4743
lwrist 39.4972
lhand -18.279 -8.62235
lfingers 7.12502
lthumb 8.00108 21.2062
rfemur -12.6608 -4.35367 22.8498
rtibia 52.5203
rfoot 4.53976 25.4303
rtoes -23.8268
lfemur -37.0079 9.75108 -28.686
ltibia 38.8981
lfoot -10.5954 8.74517
ltoes -3.80725
494
root 6.62836 16.1344 -9.49565 -171.662 -12.1124 -177.695
lowerback -3.0568 5.66489 6.11787
upperback -6.62483 7.11756 -2.03216
thorax -4.1818 3.05582 -5.48577
lowerneck -0.214701 -0.916986 -28.563
upperneck 13.7585 -6.80204 35.6709
head 6.12994 -4.2568 18.7113
rclavicle 1.33931e-013 5.80451e-014
rhumerus -38.7282 -16.6967 -84.6737
rradius 24.5534
rwrist 17.3722
rhand -11.9411 -5.44035
rfingers 7.12502
rthumb -165.886 145.059
lclavicle 1.33931e-013 5.80451e-014
lhumerus -44.1 -0.0619717 82.2202
lradius 39.1446
lwrist 40.0159
lhand -18.1228 -8.77064
lfingers 7.12502
lthumb 8.1518 21.0521
rfemur -13.8096 -4.43112 22.0972
rtibia 54.3212
rfoot 3.39918 25.5613
rtoes -24.8885
lfemur -36.2333 9.68016 -29.1565
ltibia 38.5016
lfoot -10.8324 8.39569
ltoes -3.8473
495
root 6.61375 16.1422 -9.58983 -171.688 -12.5797 -178.243
lowerback -2.75242 5.70836 5.56033
upperback -6.59514 7.20029 -2.19183
thorax -4.3524 3.11845 -5.37495
lowerneck -0.694983 -0.750619 -28.3948
upperneck 13.9572 -6.41213 35.6492
head 6.12335 -3.99599 18.6934
rclavicle -9.26834e-014 -1.63003e-014
rhumerus -38.9046 -16.7155 -84.6837
rradius 24.2475
rwrist 17.6582
rhand -12.1914 -5.3407
rfingers 7.12502
rthumb -166.127 145.142
lclavicle -9.26834e-014 -1.63003e-014
lhumerus -43.7641 -0.694768 82.6987
lradius 39.8398
lwrist 40.5709
lhand -17.9759 -8.85835
lfingers 7.12502
lthumb 8.29363 20.9589
rfemur -14.9642 -4.46046 21.321
rtibia 56.0819
rfoot 1.78102 25.2586
rtoes -26.1822
lfemur -35.4427 9.62008 -29.6858
ltibia 38.0878
lfoot -11.0485 7.98605
ltoes -3.9741
496
root 6.60147 16.1478 -9.68117 -171.709 -13.1108 -178.849
lowerback -2.41933 5.72214 4.93885
upperback -6.55004 7.23981 -2.35349
thorax -4.5372 3.16279 -5.23537
lowerneck -1.18219 -0.590369 -28.2535
upperneck 14.1439 -6.02587 35.6282
head 6.11848 -3.73695 18.6815
rclavicle 7.30534e-015 1.66979e-014
rhumerus -39.0174 -16.6383 -84.7376
rradius 23.9841
rwrist 18.0806
rhand -12.6845 -5.24388
rfingers 7.12502
rthumb -166.603 145.207
lclavicle 7.30534e-015 1.66979e-014
lhumerus -43.3989 -1.31198 83.1706
lradius 40.5084
lwrist 41.0354
lhand -17.7259 -8.97092
lfingers 7.12502
lthumb 8.53482 20.8366
rfemur -16.1326 -4.47825 20.5132
rtibia 57.7976
rfoot -0.125115 24.5089
rtoes -27.8135
lfemur -34.6457 9.55433 -30.2734
ltibia 37.6702
lfoot -11.2501 7.5206
ltoes -4.16806
497
root 6.59172 16.151 -9.77006 -171.717 -13.7251 -179.488
lowerback -2.06805 5.7081 4.28329
upperback -6.50037 7.23591 -2.51394
thorax -4.73829 3.18653 -5.07887
lowerneck -1.65308 -0.433864 -28.1409
upperneck 14.3172 -5.64744 35.6117
head 6.1116 -3.48449 18.6781
rclavicle 6.60462e-014 3.93594e-014
rhumerus -39.0992 -16.5037 -84.8115
rradius 23.7932
rwrist 18.5975
rhand -13.423 -5.20198
rfingers 7.12502
rthumb -167.315 145.203
lclavicle 6.60462e-014 3.93594e-014
lhumerus -43.0232 -1.91697 83.6323
lradius 41.1473
lwrist 41.3899
lhand -17.3905 -9.10642
lfingers 7.12502
lthumb 8.85849 20.6876
rfemur -17.3242 -4.50788 19.6985
rtibia 59.4575
rfoot -2.12671 23.35
rtoes -29.6294
lfemur -33.8632 9.46387 -30.8887
ltibia 37.2705
lfoot -11.4474 7.00343
ltoes -4.36626
498
root 6.58355 16.1514 -9.85682 -171.708 -14.4389 -180.113
lowerback -1.71924 5.66169 3.65335
upperback -6.46735 7.18003 -2.66616
thorax -4.96054 3.18129 -4.92913
lowerneck -2.06457 -0.268016 -28.0449
upperneck 14.4794 -5.27396 35.6033
head 6.09208 -3.24148 18.6817
rclavicle 8.36635e-014 7.55382e-015
rhumerus -39.1975 -16.3351 -84.8881
rradius 23.7043
rwrist 19.1533
rhand -14.395 -5.27523
rfingers 7.12502
rthumb -168.252 145.074
lclavicle 8.36635e-014 7.55382e-015
lhumerus -42.7001 -2.51565 84.0744
lradius 41.7847
lwrist 41.6323
lhand -16.9619 -9.29024
lfingers 7.12502
lthumb 9.27211 20.4859
rfemur -18.5345 -4.56523 18.9174
rtibia 61.0342
rfoot -4.03772 21.8845
rtoes -31.3514
lfemur -33.1236 9.3288 -31.4845
ltibia 36.9201
lfoot -11.6544 6.44616
ltoes -4.55183
499
root 6.5772 16.1499 -9.94214 -171.675 -15.242 -180.66
lowerback -1.4021 5.60029 3.11012
upperback -6.44016 7.09833 -2.79557
thorax -5.16684 3.15987 -4.79952
lowerneck -2.43206 -0.111566 -27.9543
upperneck 14.6074 -4.91694 35.5846
head 6.06061 -3.00977 18.6751
rclavicle 1.12313e-013 1.82882e-014
rhumerus -39.2773 -16.1452 -84.962
rradius 23.7174
rwrist 19.6482
rhand -15.51 -5.52962
rfingers 7.12502
rthumb -169.327 144.761
lclavicle 1.12313e-013 1.82882e-014
lhumerus -42.3722 -3.08782 84.502
lradius 42.3793
lwrist 41.7386
lhand -16.4686 -9.52334
lfingers 7.12502
lthumb 9.74805 20.2311
rfemur -19.7777 -4.61553 18.2422
rtibia 62.4962
rfoot -5.74677 20.2126
rtoes -32.7602
lfemur -32.4696 9.13637 -31.9874
ltibia 36.6524
lfoot -11.8823 5.87081
ltoes -4.66005
